<?xml version="1.0" encoding="utf-8"?>
<svg version="1.1" id="Capa_1" xmlns="http://www.w3.org/2000/svg" xmlns:xlink="http://www.w3.org/1999/xlink" x="0px" y="0px"
	 viewBox="0 0 800 800" style="enable-background:new 0 0 800 800;" xml:space="preserve">
<style type="text/css">
	.st0{fill:#010002;}
</style>
<g>
	<g>
		<path class="st0" d="M459.1,501.2c1.4-5.9,2.4-12.1,2.6-18.8c5.5-121.3-60.7-220.6-160.1-284.5c-59.1-38-115.1,3.4-129.4,56.3
			c-36.6-29.1-100.1,14.5-71.5,62.4c1,1.7,2.1,3.5,3.2,5.3c-28.6-0.1-119.9-0.4-94.4,0c30.2,0.5,102.7,81.8,102.7,81.8V335
			c22.3,34,50.7,65.9,93.1,70.7c19.3,2.2,35.3-3.8,48.4-14.2c16.6,20.3,25,43,26.6,70.3c-14.5-0.2-29,0.4-43.7,2.1
			c-50.6,6-81.9,17.1-92.1,70.1c-15.4,79.9,26.2,138.2,71,199.3c36.5,49.7,120.4,1.5,83.4-48.8c-30.2-41.2-60.6-75-59.3-122.8
			c29.5-4.5,58.9-3.3,88.8-0.4c14.7,6.3,31.2,8.9,47.6,7.6c24.4,81.7,70.8,154.4,130.9,216.5c43.4,44.9,111.7-23.6,68.3-68.3
			C515.7,655.4,475.8,584.2,459.1,501.2z"/>
		<path class="st0" d="M93.3,109.1c0.1,1.4,0.2,2.7,0.4,4.1c6.2,44.7,47.4,76,92.1,69.8c44.7-6.1,75.9-47.4,69.8-92.1
			c-1.3-9.3-4.1-18-8.1-25.9c2.8-1.3,4-4.5,3.1-11.1l-2.7-19.5c-3-21.8-23.1-37.1-44.9-34.1l-87,11.9c-21.9,3-37.1,23.1-34.1,45
			l2.1,15.8c-12.2,9.7-22.5,22-20.3,35C65.6,119.7,78.4,116.8,93.3,109.1z"/>
	</g>
</g>
<g>
	<path d="M445.4,104.2l-11.3,6.4c-8.4-4-18.6-3.9-27.3,1l-29.5,16.7c-7.1,4-12,10.6-14,17.9c-0.5,1.6-0.8,3.3-0.9,5l-13.2,7.4
		c-4.8,2.7-6.4,8.7-3.7,13.5l150.4,266.3c2.5,4.5,8,6.2,12.6,4.2l51.4,90.9l97.8-55.2l-51.4-90.9c4.1-2.9,5.5-8.5,3-13L458.9,108
		C456.2,103.2,450.2,101.5,445.4,104.2z M379.3,131.7l29.5-16.7c6.6-3.7,14.2-4.2,21-1.9l-62.9,35.5
		C368.3,141.7,372.6,135.4,379.3,131.7z M646.9,475.2l-84,47.5l-47.5-84l84-47.5L646.9,475.2z"/>
	<path d="M608.7,451.5l-8.7,4.9c-1.9,1-4.2,0.4-5.3-1.5l-4.9-8.7c-1-1.9-0.4-4.2,1.5-5.3l8.7-4.9c1.9-1,4.2-0.4,5.3,1.5l4.9,8.7
		C611.2,448,610.6,450.4,608.7,451.5z"/>
	<path d="M570.9,472.8l-8.7,4.9c-1.9,1-4.2,0.4-5.3-1.5l-4.9-8.7c-1-1.9-0.4-4.2,1.5-5.3l8.7-4.9c1.9-1,4.2-0.4,5.3,1.5l4.9,8.7
		C573.4,469.4,572.7,471.8,570.9,472.8z"/>
</g>
</svg>